<svg fill="white" height="32pt" viewBox="0 0 512 512" width="32pt" xmlns="http://www.w3.org/2000/svg"><g><path d="m496.484 79.129c8.556 0 15.516-6.96 15.516-15.516v-32.065c0-8.556-6.96-15.516-15.516-15.516h-480.968c-8.556 0-15.516 6.961-15.516 15.516v32.064c0 8.556 6.96 15.516 15.516 15.516h.516v273.581h-.516c-8.556 0-15.516 6.961-15.516 15.517v16.033c0 8.556 6.96 15.516 15.516 15.516h232.984v50.362c-9.308 3.139-16.032 11.946-16.032 22.3 0 12.976 10.557 23.532 23.532 23.532s23.532-10.557 23.532-23.532c0-10.353-6.724-19.16-16.032-22.3v-50.362h232.984c8.556 0 15.516-6.96 15.516-15.516v-16.033c0-8.556-6.96-15.516-15.516-15.516h-.516v-273.581zm-240.484 401.839c-4.705 0-8.532-3.828-8.532-8.532s3.828-8.532 8.532-8.532 8.532 3.828 8.532 8.532-3.827 8.532-8.532 8.532zm224.968-128.259h-16.548c-4.142 0-7.5 3.358-7.5 7.5s3.358 7.5 7.5 7.5h32.064c.285 0 .516.231.516.516v16.033c0 .285-.231.516-.516.516h-480.968c-.285 0-.516-.231-.516-.516v-16.033c0-.285.231-.516.516-.516h416.839c4.142 0 7.5-3.358 7.5-7.5s-3.358-7.5-7.5-7.5h-401.323v-273.58h16.548c4.142 0 7.5-3.358 7.5-7.5s-3.358-7.5-7.5-7.5h-32.064c-.285 0-.516-.231-.516-.516v-32.065c0-.285.231-.516.516-.516h480.968c.285 0 .516.231.516.516v32.064c0 .285-.231.516-.516.516h-416.839c-4.142 0-7.5 3.358-7.5 7.5s3.358 7.5 7.5 7.5h401.323z"/><path d="m196.177 291.232c4.659 2.879 9.887 4.331 15.136 4.331 4.396 0 8.806-1.018 12.908-3.069l101.587-50.794c9.828-4.914 15.933-14.792 15.934-25.78s-6.105-20.867-15.933-25.782l-101.587-50.793c-9-4.5-19.484-4.029-28.044 1.261s-13.67 14.456-13.67 24.519v101.587c-.002 10.063 5.109 19.229 13.669 24.52zm1.329-126.107c0-4.898 2.39-9.184 6.556-11.759 2.264-1.399 4.744-2.103 7.241-2.103 2.099 0 4.208.498 6.209 1.498l101.586 50.793c4.786 2.393 7.642 7.016 7.642 12.365s-2.857 9.972-7.642 12.364l-101.587 50.794c-4.381 2.189-9.284 1.97-13.45-.605s-6.556-6.861-6.556-11.76v-101.587z"/></g></svg>